<svg version="1.1" xmlns="http://www.w3.org/2000/svg" xmlns:xlink="http://www.w3.org/1999/xlink" width="92.5732" height="47.3517" viewBox="0,0,92.5732,47.3517"><g transform="translate(-193.7134,-156.32415)"><g data-paper-data="{&quot;isPaintingLayer&quot;:true}" fill="#000000" fill-rule="nonzero" stroke="none" stroke-width="0" stroke-linecap="butt" stroke-linejoin="miter" stroke-miterlimit="10" stroke-dasharray="" stroke-dashoffset="0" style="mix-blend-mode: normal"><path d="M196.06226,202.71085c0,0 -2.08887,-12.26985 -2.31088,-19.07797c-0.25572,-7.84202 0.86336,-25.31243 0.86336,-25.31243l6.99632,1.68876c0,0 -1.74067,8.69191 -1.65551,16.39945c0.0458,4.14458 0.12718,13.81564 0.736,20.41897c0.37671,4.0858 1.40201,6.84823 1.40201,6.84823z"/><path d="M198.71604,186.54694v-7.96132c0,0 4.70408,0.96501 7.23757,0.96501c3.0124,0 9.65009,-0.96501 9.65009,-0.96501v7.96132z"/><path d="M214.15618,202.22834c0,0 -0.24125,-13.35126 -0.24125,-20.02394c0,-6.51186 1.20626,-19.30018 1.20626,-19.30018h5.5488l-0.24125,39.80661z"/><path d="M226.46004,201.26333c0,0 1.8639,-9.432 1.94693,-14.70472c0.07741,-4.91517 -1.46443,-14.9693 -1.46443,-14.9693l6.27256,0.96501v29.19151z"/><path d="M232.25009,192.337l-0.24125,-12.06261c0,0 4.56436,-3.70385 6.27282,-3.62438c0.79338,0.0369 1.95234,0.64456 2.71821,1.56101c0.92207,1.10336 1.38281,2.54587 1.38281,2.54587c0,0 2.93507,1.22732 3.44138,3.79999c0.75299,3.82618 0.63803,16.92867 0.63803,16.92867l-5.52692,-0.70474c0,0 -0.05811,-8.65283 -0.86783,-12.66219c-0.85798,-4.24831 -2.50061,-3.84583 -3.63986,-3.04835c-1.61178,1.12825 -4.17739,7.26671 -4.17739,7.26671z"/><path d="M245.27771,187.99446l-4.10129,-6.75506c0,0 4.77515,-2.25232 6.83702,-2.85665c1.53339,-0.44944 6.66038,-0.14964 8.73136,6.35785c1.32256,4.1558 0.11301,15.55773 0.11301,15.55773l-4.82505,1.44751c0,0 -0.1444,-10.96561 -1.42838,-16.40966c-0.65037,-2.75755 -2.31054,-2.3049 -2.929,-1.95149c-1.4385,0.82201 -2.39768,4.60977 -2.39768,4.60977z"/><path d="M262.40662,173.76058l-6.51381,-1.44751c0,0 -0.3837,-10.00602 3.5693,-12.85502c2.66346,-1.91961 21.27336,-7.1452 24.8606,2.55805c1.00809,2.72682 2.88044,5.13725 1.43694,9.9448c-1.32337,4.40746 -7.22402,6.39476 -9.44474,10.46097c-2.28986,4.19279 -0.88067,10.39765 -0.88067,10.39765l-6.27256,-0.24125c0,0 -1.59342,-5.12072 0.13889,-10.8871c0.94634,-3.1501 4.82979,-4.78707 6.27169,-7.74573c0.93136,-1.91108 -0.14012,-5.35777 -0.3762,-6.8163c-0.93684,-5.78774 -10.16895,-2.75242 -11.75688,-1.56147c-2.45505,1.84129 -1.03256,8.19292 -1.03256,8.19292z"/><path d="M268.67917,202.71085v-6.0313l7.72007,-2.41252v8.44383z"/></g></g></svg>