<svg viewBox="0,0,180.77629,140.4353" height="140.4353" width="180.77629" xmlns:xlink="http://www.w3.org/1999/xlink" xmlns="http://www.w3.org/2000/svg" version="1.1"><g transform="translate(-140.62284,-109.57915)"><g style="mix-blend-mode: normal" stroke-dashoffset="0" stroke-dasharray="" stroke-miterlimit="10" stroke-linejoin="miter" stroke-linecap="butt" fill-rule="nonzero" data-paper-data="{&quot;isPaintingLayer&quot;:true}"><path stroke-width="3.5" stroke="#ff8600" fill="#ffda3d" d="M192.77915,165.59489c0,0 35.45182,6.51198 38.57972,1.62349c4.32749,-6.76326 4.99392,-34.87581 4.99392,-34.87581c0,0 6.12928,30.05122 10.18792,33.43209c2.35821,1.96441 36.48289,-16.11526 36.48289,-16.11526c0,0 -28.69317,23.83869 -28.56831,27.94214c0.1023,3.36179 32.76556,17.27603 32.76556,17.27603c0,0 -36.28712,-5.24309 -38.71944,-1.88018c-2.58732,3.57722 -2.51538,34.66003 -2.51538,34.66003c0,0 -7.60192,-28.65467 -12.17396,-28.96145c-5.80893,-0.38979 -32.12979,17.13575 -32.12979,17.13575c0,0 26.02843,-30.07166 25.19181,-31.50305c-2.54126,-4.34785 -34.09494,-18.73379 -34.09494,-18.73379z"></path><path stroke-width="1" stroke="#ff8600" fill="#fff7d4" d="M185.4935,116.39884c3.02735,4.03903 6.49539,11.35061 6.49539,11.35061c0,0 -6.00293,-5.32436 -9.03029,-9.36338c-3.02735,-4.03903 -4.91405,-7.75816 -4.21406,-8.30692c0.69999,-0.54876 3.72161,2.28067 6.74896,6.3197z"></path><path stroke-width="1" stroke="#ff8600" fill="#fff7d4" data-paper-data="{&quot;index&quot;:null}" d="M254.74455,122.49947c1.07097,-4.58628 2.78665,-8.17225 3.83207,-8.00947c1.04542,0.16278 1.0247,4.01263 -0.04627,8.5989c-1.07097,4.58628 -4.63913,11.46555 -4.63913,11.46555c0,0 -0.21764,-7.46871 0.85333,-12.05498z"></path><path stroke-width="1" stroke="#ff8600" fill="#fff7d4" data-paper-data="{&quot;index&quot;:null}" d="M310.77086,162.48971c-5.87367,1.46193 -15.5684,1.88525 -15.5684,1.88525c0,0 8.68081,-4.15031 14.55449,-5.61225c5.87367,-1.46193 10.86219,-1.81276 11.14218,-0.78358c0.27999,1.02918 -4.25459,3.04863 -10.12827,4.51057z"></path><path stroke-width="1" stroke="#ff8600" fill="#fff7d4" data-paper-data="{&quot;index&quot;:null}" d="M302.94902,239.64139c-4.60817,-3.92454 -10.59643,-11.5605 -10.59643,-11.5605c0,0 8.42825,4.6418 13.03643,8.56634c4.60816,3.92454 7.79763,7.77626 7.12384,8.60309c-0.67378,0.82682 -4.95566,-1.68439 -9.56384,-5.60894z"></path><path stroke-width="1" stroke="#ff8600" fill="#fff7d4" data-paper-data="{&quot;index&quot;:null}" d="M198.69385,242.67715c-4.09906,4.45366 -8.04536,7.46488 -8.8143,6.72572c-0.76894,-0.73916 1.93066,-4.94874 6.02971,-9.40239c4.09906,-4.45365 11.90323,-10.08185 11.90323,-10.08185c0,0 -5.01959,8.30487 -9.11864,12.75852z"></path><path stroke-width="1" stroke="#ff8600" fill="#fff7d4" data-paper-data="{&quot;index&quot;:null}" d="M152.17987,183.88216c-6.02192,0.61144 -10.97233,0.24521 -11.05704,-0.81802c-0.0847,-1.06322 4.72835,-2.42079 10.75025,-3.03222c6.02192,-0.61143 15.59497,0.35727 15.59497,0.35727c0,0 -9.26628,2.88154 -15.28818,3.49298z"></path></g></g></svg>