<svg version="1.1" xmlns="http://www.w3.org/2000/svg" xmlns:xlink="http://www.w3.org/1999/xlink" width="558.30004" height="430.44558" viewBox="0,0,558.30004,430.44558"><defs><linearGradient x1="236.60004" y1="-49.95012" x2="236.60004" y2="292.44986" gradientUnits="userSpaceOnUse" id="color-1"><stop offset="0" stop-color="#39d8dc"/><stop offset="1" stop-color="#7fe2e5"/></linearGradient><linearGradient x1="29.60001" y1="168.30002" x2="29.60001" y2="244.30001" gradientUnits="userSpaceOnUse" id="color-2"><stop offset="0" stop-color="#72c67b"/><stop offset="1" stop-color="#3d9e46"/></linearGradient><linearGradient x1="342.00001" y1="200.11532" x2="342.00001" y2="370.54176" gradientUnits="userSpaceOnUse" id="color-3"><stop offset="0" stop-color="#66cbb2"/><stop offset="1" stop-color="#2aa07e"/></linearGradient><linearGradient x1="209.60002" y1="213.30001" x2="209.60002" y2="365.30002" gradientUnits="userSpaceOnUse" id="color-4"><stop offset="0" stop-color="#adce41"/><stop offset="1" stop-color="#79af15"/></linearGradient></defs><g transform="translate(26.39999,49.95013)"><g data-paper-data="{&quot;isPaintingLayer&quot;:true}" fill-rule="nonzero" stroke="none" stroke-linecap="butt" stroke-linejoin="miter" stroke-miterlimit="10" stroke-dasharray="" stroke-dashoffset="0" style="mix-blend-mode: normal"><path d="M-13.39999,292.44986v-342.39998h500.00004v342.39998z" fill="url(#color-1)" stroke-width="0"/><path d="M438.15005,217.91243c0,0 6.42657,-26.57198 8.6115,-39.19416c2.14776,-12.40748 4.3885,-35.90586 4.3885,-35.90586l16.20001,12c0,0 -2.16519,8.97149 -3.51481,16.74535c-1.83326,10.55957 -6.48519,40.85467 -6.48519,40.85467z" fill="#857a5e" stroke-width="0"/><path d="M87.79998,180.17501l10.25,-32.05c0,0 9.25467,-1.5 14.85,-1.5c3.27103,0 4.68612,-0.83876 10.48775,-0.62201c4.97383,0.18582 7.68128,-5.91268 12.92986,-5.50838c7.30227,0.56249 18.73241,7.38039 18.73241,7.38039c0,0 36.56497,10.72019 36.28037,15.28005c-0.11202,1.79482 12.65109,3.07641 24.29873,10.68466c2.61489,1.70805 3.99144,7.53321 6.59449,10.77622c1.37129,1.70842 4.34728,1.25527 5.27667,2.24594c4.63351,4.93902 -0.52799,17.17203 -0.52799,17.17203l-76.42227,-10.35889z" fill="#b3c1aa" stroke-width="0"/><path d="M201.39999,201.67501v-21.75l17.62456,8.14801l4.06529,10.23332l-0.30731,-9.56563l5.36746,3.4343l4,9.5z" fill="#8e9e82" stroke-width="0"/><path d="M123.64998,183.92501l14.75,-42l23.5,11.75c0,0 1.5,14.10431 1.5,20c0,0.69908 6.19666,-13.84691 6.19666,-13.84691c0,0 12.46896,1.60427 18.03717,7.61189c5.51373,5.94884 15.21027,28.25919 15.21027,28.25919l-40.94411,-6.77417z" fill="#8e9e82" stroke-width="0"/><path d="M88.64998,177.67501l3.25,-9c0,0 9.83907,-9.15333 14.11807,-10.31517c2.40998,-0.65437 -2.61519,9.42987 -2.61519,9.42987l10.65381,-11.92554l17.59332,-3.68915l-11.25,25.75z" fill="#8e9e82" stroke-width="0"/><path d="M-26.39999,244.30001v-72c0,0 94.2658,-1.85398 135.0806,3.37032c42.45397,5.43411 114.9194,24.62968 114.9194,24.62968l-38,57z" fill="url(#color-2)" stroke-width="0"/><path d="M202.80001,370.54176l-98,-132.23562c0,0 61.87199,-28.12179 129.81782,-41.21352c45.28483,-8.72543 98.82566,-4.66071 118.18221,-3.54376c43.97613,2.5376 128.39997,22.63125 128.39997,22.63125v154.36165z" fill="url(#color-3)" stroke-width="0"/><path d="M54.25001,211.825c0,2.48528 -1.90279,4.5 -4.25,4.5c-2.34721,0 -4.25,-2.01472 -4.25,-4.5c0,-2.48528 1.90279,-4.5 4.25,-4.5c2.34721,0 4.25,2.01472 4.25,4.5z" fill="#48987b" stroke-width="0"/><path d="M54.74525,198.55058c3.21811,4.61102 3.64641,9.87077 0.95666,11.748c-2.68975,1.87723 -7.47902,-0.33894 -10.69713,-4.94996c-3.21811,-4.61102 -3.64641,-9.87077 -0.95665,-11.748c2.68975,-1.87723 7.47902,0.33894 10.69713,4.94996z" fill="#48987b" stroke-width="0"/><path d="M55.1977,190.9005c1.63912,2.2109 2.26377,4.52521 1.3952,5.16915c-0.86857,0.64394 -2.90145,-0.62633 -4.54057,-2.83724c-1.63912,-2.2109 -2.26378,-4.52522 -1.39521,-5.16916c0.86857,-0.64394 2.90146,0.62634 4.54058,2.83724z" fill="#48987b" stroke-width="0"/><path d="M62.75001,185.70001c0,5.45381 -1.95875,9.875 -4.375,9.875c-2.41625,0 -4.375,-4.42119 -4.375,-9.875c0,-5.45381 1.95875,-9.875 4.375,-9.875c2.41625,0 4.375,4.42119 4.375,9.875z" fill="#48987b" stroke-width="0"/><path d="M61.25001,175.70001c0,3.52081 -0.44772,6.375 -1,6.375c-0.55228,0 -1,-2.85419 -1,-6.375c0,-3.52081 0.44772,-6.375 1,-6.375c0.55228,0 1,2.85419 1,6.375z" fill="#48987b" stroke-width="0"/><path d="M69.50001,181.95001c0,5.72995 -1.51104,10.375 -3.375,10.375c-1.86396,0 -3.375,-4.64505 -3.375,-10.375c0,-5.72995 1.51104,-10.375 3.375,-10.375c1.86396,0 3.375,4.64505 3.375,10.375z" fill="#48987b" stroke-width="0"/><path d="M70.98533,176.75605c-0.66654,4.08816 -1.704,7.3212 -2.31722,7.22123c-0.61322,-0.09998 -0.57,-3.49514 0.09655,-7.58329c0.66654,-4.08816 1.704,-7.3212 2.31723,-7.22122c0.61322,0.09998 0.56999,3.49514 -0.09655,7.58329z" fill="#48987b" stroke-width="0"/><path d="M79.16892,178.81041c-1.39587,3.24515 -4.33796,5.32274 -6.57135,4.64045c-2.23339,-0.68229 -2.91233,-3.8661 -1.51646,-7.11124c1.39587,-3.24515 4.33796,-5.32274 6.57135,-4.64046c2.23339,0.68229 2.91233,3.8661 1.51646,7.11125z" fill="#48987b" stroke-width="0"/><path d="M83.25001,183.57501c0,1.65686 -1.28718,3 -2.875,3c-1.58782,0 -2.875,-1.34314 -2.875,-3c0,-1.65686 1.28718,-3 2.875,-3c1.58782,0 2.875,1.34314 2.875,3z" fill="#48987b" stroke-width="0"/><path d="M82.75001,189.32501c0,2.62336 -1.28718,4.75 -2.875,4.75c-1.58782,0 -2.875,-2.12664 -2.875,-4.75c0,-2.62336 1.28718,-4.75 2.875,-4.75c1.58782,0 2.875,2.12664 2.875,4.75z" fill="#48987b" stroke-width="0"/><path d="M86.00634,195.66827c-1.10536,1.13989 -2.5639,1.51854 -3.25775,0.84571c-0.69385,-0.67282 -0.36026,-2.14233 0.74509,-3.28222c1.10536,-1.13989 2.5639,-1.51853 3.25775,-0.84571c0.69385,0.67282 0.36027,2.14232 -0.74509,3.28222z" fill="#48987b" stroke-width="0"/><path d="M87.75001,201.32501c0,3.31371 -1.62297,6 -3.625,6c-2.00203,0 -3.625,-2.68629 -3.625,-6c0,-3.31371 1.62297,-6 3.625,-6c2.00203,0 3.625,2.68629 3.625,6z" fill="#48987b" stroke-width="0"/><path d="M93.50001,209.45c0,0.06904 -0.33579,0.125 -0.75,0.125c-0.41421,0 -0.75,-0.05596 -0.75,-0.125c0,-0.06904 0.33579,-0.125 0.75,-0.125c0.41421,0 0.75,0.05596 0.75,0.125z" fill="#48987b" stroke-width="0"/><path d="M87.50001,213.575c0,3.58985 -2.12664,6.5 -4.75,6.5c-2.62336,0 -4.75,-2.91015 -4.75,-6.5c0,-3.58985 2.12664,-6.5 4.75,-6.5c2.62336,0 4.75,2.91015 4.75,6.5z" fill="#48987b" stroke-width="0"/><path d="M83.50001,204.07501c0,10.63148 -10.54783,16.5 -18.625,16.5c-8.07717,0 -14.625,-8.61852 -14.625,-19.25c0,-10.63148 6.54783,-19.25 14.625,-19.25c1.2985,0 2.69179,-2.62799 4.04535,-3.19136c1.84479,-0.76782 3.61575,0.58441 4.97226,1.81021c1.26165,1.14009 2.79963,-0.70319 3.6247,1.57716c1.25783,3.47642 5.49246,9.65909 5.65744,14.53964c0.05612,1.66021 0.32525,6.14082 0.32525,7.26435z" fill="#48987b" stroke-width="0"/><path d="M103.33378,208.31173c1.89435,2.54875 2.21726,5.51629 0.72125,6.62819c-1.496,1.1119 -4.24442,-0.0529 -6.13877,-2.60165c-1.89435,-2.54875 -2.21726,-5.5163 -0.72125,-6.6282c1.496,-1.1119 4.24442,0.05291 6.13877,2.60166z" fill="#48987b" stroke-width="0"/><path d="M103.62503,200.85956c1.95654,1.6421 3.03895,3.57342 2.41761,4.31374c-0.62134,0.74032 -2.71112,0.00927 -4.66766,-1.63282c-1.95654,-1.6421 -3.03894,-3.57342 -2.41761,-4.31374c0.62134,-0.74032 2.71111,-0.00927 4.66765,1.63282z" fill="#48987b" stroke-width="0"/><path d="M113.25001,199.82501c0,7.1797 -2.23857,13 -5,13c-2.76143,0 -5,-5.8203 -5,-13c0,-7.1797 2.23857,-13 5,-13c2.76143,0 5,5.8203 5,13z" fill="#48987b" stroke-width="0"/><path d="M117.75001,194.20001c0,3.65888 -1.28718,6.625 -2.875,6.625c-1.58782,0 -2.875,-2.96612 -2.875,-6.625c0,-3.65888 1.28718,-6.625 2.875,-6.625c1.58782,0 2.875,2.96612 2.875,6.625z" fill="#48987b" stroke-width="0"/><path d="M121.83903,194.07308c-1.05007,6.43923 -3.06046,11.5482 -4.49033,11.41119c-1.42987,-0.137 -1.73777,-5.4681 -0.68771,-11.90733c1.05007,-6.43923 3.06046,-11.5482 4.49033,-11.41119c1.42987,0.137 1.73777,5.4681 0.68771,11.90733z" fill="#48987b" stroke-width="0"/><path d="M127.05785,200.62099c-2.53556,4.07361 -5.96008,6.73974 -7.64888,5.95496c-1.68879,-0.78478 -1.00236,-4.7233 1.5332,-8.79691c2.53556,-4.07361 5.96008,-6.73974 7.64888,-5.95496c1.68879,0.78478 1.00236,4.7233 -1.5332,8.79691z" fill="#48987b" stroke-width="0"/><path d="M132.74189,201.65776c-1.89063,1.91689 -4.53895,2.37046 -5.91518,1.01309c-1.37623,-1.35737 -0.95922,-4.01169 0.93141,-5.92858c1.89063,-1.91689 4.53895,-2.37046 5.91518,-1.01309c1.37623,1.35737 0.95922,4.0117 -0.93141,5.92858z" fill="#48987b" stroke-width="0"/><path d="M135.34007,205.4005c0.57402,1.10211 -0.40008,2.74526 -2.17571,3.67007c-1.77563,0.92481 -3.6804,0.78107 -4.25441,-0.32104c-0.57402,-1.10211 0.40008,-2.74526 2.17571,-3.67007c1.77563,-0.92481 3.6804,-0.78107 4.25441,0.32104z" fill="#48987b" stroke-width="0"/><path d="M133.50001,213.575c0,1.933 -1.567,3.5 -3.5,3.5c-1.933,0 -3.5,-1.567 -3.5,-3.5c0,-1.933 1.567,-3.5 3.5,-3.5c1.933,0 3.5,1.567 3.5,3.5z" fill="#48987b" stroke-width="0"/><path d="M131.00001,212.2c0,7.9391 -10.59644,12.125 -17.5,12.125c-6.90356,0 -12.5,-6.4359 -12.5,-14.375c0,-7.9391 5.59644,-14.375 12.5,-14.375c5.48874,0 16.40121,2.06825 18.08175,7.72572c0.43319,1.45832 -0.58175,7.27223 -0.58175,8.89928z" fill="#48987b" stroke-width="0"/><path d="M61.34106,216.23293c-1.27717,1.30018 -4.41598,0.28797 -7.01072,-2.26085c-2.59474,-2.54882 -3.66284,-5.66905 -2.38567,-6.96924c1.27717,-1.30018 4.41598,-0.28797 7.01072,2.26085c2.59474,2.54882 3.66284,5.66905 2.38566,6.96924z" fill="#2d7659" stroke-width="0"/><path d="M62.75716,206.81788c0,2.935 -1.27919,5.31428 -2.85714,5.31428c-1.57796,0 -2.85714,-2.37928 -2.85714,-5.31428c0,-2.935 1.27918,-5.31429 2.85714,-5.31429c1.57796,0 2.85714,2.37929 2.85714,5.31429z" fill="#2d7659" stroke-width="0"/><path d="M63.78573,203.04645c0,2.87188 -1.61178,5.2 -3.60001,5.2c-1.98822,0 -3.6,-2.32811 -3.6,-5.2c0,-2.87188 1.61178,-5.2 3.6,-5.2c1.98823,0 3.60001,2.32812 3.60001,5.2z" fill="#2d7659" stroke-width="0"/><path d="M76.70001,206.87502c0,4.92323 -4.19573,8.91429 -9.37143,8.91429c-5.1757,0 -9.37143,-3.99106 -9.37143,-8.91429c0,-4.92323 4.19573,-8.91429 9.37143,-8.91429c5.1757,0 9.37143,3.99106 9.37143,8.91429z" fill="#2d7659" stroke-width="0"/><path d="M68.47144,196.70359c0,2.77721 -1.61177,5.02857 -3.6,5.02857c-1.98822,0 -3.6,-2.25137 -3.6,-5.02857c0,-2.77721 1.61178,-5.02857 3.6,-5.02857c1.98823,0 3.6,2.25136 3.6,5.02857z" fill="#2d7659" stroke-width="0"/><path d="M62.98573,197.21788c0,2.55629 -1.48386,4.62858 -3.31429,4.62858c-1.83043,0 -3.31428,-2.07229 -3.31428,-4.62858c0,-2.55629 1.48385,-4.62857 3.31428,-4.62857c1.83043,0 3.31429,2.07228 3.31429,4.62857z" fill="#2d7659" stroke-width="0"/><path d="M74.30001,199.96073c0,2.05134 -1.63736,3.71429 -3.65714,3.71429c-2.01978,0 -3.65714,-1.66295 -3.65714,-3.71429c0,-2.05134 1.63735,-3.71428 3.65714,-3.71428c2.01978,0 3.65715,1.66294 3.65715,3.71428z" fill="#2d7659" stroke-width="0"/><path d="M69.72858,205.38931c0,2.58784 -1.48385,4.68571 -3.31428,4.68571c-1.83043,0 -3.31429,-2.09787 -3.31429,-4.68571c0,-2.58784 1.48386,-4.68571 3.31429,-4.68571c1.83043,0 3.31428,2.09787 3.31428,4.68571z" fill="#2d7659" stroke-width="0"/><path d="M66.07145,203.04645c0,1.98823 -1.04894,3.6 -2.34286,3.6c-1.29393,0 -2.34286,-1.61177 -2.34286,-3.6c0,-1.98822 1.04894,-3.6 2.34286,-3.6c1.29392,0 2.34286,1.61177 2.34286,3.6z" fill="#2d7659" stroke-width="0"/><path d="M73.95715,194.18931c0,3.85021 -1.61177,6.97143 -3.59999,6.97143c-1.98822,0 -3.6,-3.12122 -3.6,-6.97143c0,-3.85021 1.61178,-6.97143 3.6,-6.97143c1.98823,0 3.59999,3.12121 3.59999,6.97143z" fill="#2d7659" stroke-width="0"/><path d="M79.56281,196.96248c0.51072,0.79721 -0.971,2.65793 -3.30949,4.15603c-2.33849,1.4981 -4.64824,2.06628 -5.15896,1.26906c-0.51072,-0.79721 0.971,-2.65794 3.30949,-4.15604c2.33849,-1.4981 4.64824,-2.06627 5.15895,-1.26906z" fill="#2d7659" stroke-width="0"/><path d="M75.67144,199.21789c0,-0.69431 0.46051,-1.25715 1.02858,-1.25715c0.56807,0 1.02857,0.56284 1.02857,1.25715c0,0.69431 -0.4605,1.25714 -1.02857,1.25714c-0.56807,0 -1.02858,-0.56284 -1.02858,-1.25714z" fill="#2d7659" stroke-width="0"/><path d="M81.51878,205.43011c-0.49592,1.29702 -2.95305,1.5627 -5.48815,0.5934c-2.53509,-0.9693 -4.18818,-2.80653 -3.69225,-4.10355c0.49592,-1.29702 2.95305,-1.5627 5.48815,-0.5934c2.53509,0.9693 4.18818,2.80653 3.69225,4.10356z" fill="#2d7659" stroke-width="0"/><path d="M106.64288,212.36074c1.26236,0 2.28571,0.40934 2.28571,0.91429c0,0.50495 -1.02334,0.91429 -2.28571,0.91429c-1.26236,0 -2.28571,-0.40934 -2.28571,-0.91429c0,-0.50496 1.02334,-0.91429 2.28571,-0.91429z" fill="#2d7659" stroke-width="0"/><path d="M108.76386,213.09464c-0.52767,0.70881 -2.08412,0.44316 -3.47643,-0.59333c-1.3923,-1.0365 -2.09323,-2.45135 -1.56556,-3.16016c0.52767,-0.70881 2.08412,-0.44317 3.47643,0.59333c1.3923,1.0365 2.09323,2.45135 1.56556,3.16016z" fill="#2d7659" stroke-width="0"/><path d="M110.52858,205.33218c0,2.935 -1.20244,5.31428 -2.68572,5.31428c-1.48328,0 -2.68571,-2.37928 -2.68571,-5.31428c0,-2.935 1.20243,-5.31429 2.68571,-5.31429c1.48328,0 2.68572,2.37929 2.68572,5.31429z" fill="#2d7659" stroke-width="0"/><path d="M113.48233,196.38298c0.62505,0.36904 0.06514,2.4747 -1.25057,4.70312c-1.31571,2.22842 -2.88902,3.73575 -3.51406,3.3667c-0.62505,-0.36904 -0.06515,-2.4747 1.25057,-4.70312c1.31571,-2.22842 2.88902,-3.73574 3.51407,-3.3667z" fill="#2d7659" stroke-width="0"/><path d="M122.98573,209.56074c0,4.70231 -3.68406,8.51429 -8.22857,8.51429c-4.54452,0 -8.22857,-3.81197 -8.22857,-8.51429c0,-4.70231 3.68406,-8.51429 8.22857,-8.51429c4.54452,0 8.22857,3.81197 8.22857,8.51429z" fill="#2d7659" stroke-width="0"/><path d="M111.32859,197.84646c0,-2.01979 1.20243,-3.65715 2.68571,-3.65715c1.48328,0 2.68572,1.63736 2.68572,3.65715c0,2.01979 -1.20244,3.65714 -2.68572,3.65714c-1.48328,0 -2.68571,-1.63735 -2.68571,-3.65714z" fill="#2d7659" stroke-width="0"/><path d="M115.44287,201.44646c0,1.04145 -1.02335,1.88572 -2.28571,1.88572c-1.26237,0 -2.28571,-0.84427 -2.28571,-1.88572c0,-1.04145 1.02335,-1.88572 2.28571,-1.88572c1.26237,0 2.28571,0.84427 2.28571,1.88572z" fill="#2d7659" stroke-width="0"/><path d="M118.19685,200.98841c-2.16364,2.4259 -4.20402,4.13705 -4.5573,3.82195c-0.35328,-0.3151 1.1143,-2.53711 3.27794,-4.96301c2.16364,-2.4259 4.20402,-4.13705 4.5573,-3.82196c0.35328,0.3151 -1.1143,2.53711 -3.27794,4.96301z" fill="#2d7659" stroke-width="0"/><path d="M128.0143,205.1036c0,1.16769 -2.09786,2.11428 -4.68571,2.11428c-2.58785,0 -4.68572,-0.9466 -4.68572,-2.11428c0,-1.16769 2.09786,-2.11428 4.68572,-2.11428c2.58785,0 4.68571,0.9466 4.68571,2.11428z" fill="#2d7659" stroke-width="0"/><path d="M125.95716,210.53217c0,1.00989 -1.45827,1.82857 -3.25714,1.82857c-1.79887,0 -3.25714,-0.81868 -3.25714,-1.82857c0,-1.00989 1.45827,-1.82857 3.25714,-1.82857c1.79887,0 3.25714,0.81868 3.25714,1.82857z" fill="#2d7659" stroke-width="0"/><path d="M127.2143,213.56074c0,2.05134 -2.12345,3.71428 -4.74286,3.71428c-2.61941,0 -4.74286,-1.66294 -4.74286,-3.71428c0,-2.05134 2.12345,-3.71429 4.74286,-3.71429c2.61941,0 4.74286,1.66294 4.74286,3.71429z" fill="#2d7659" stroke-width="0"/><path d="M-10.39999,365.30002l-3,-145c0,0 36.09016,-8.43744 83.9802,-7.70505c49.59147,0.75841 114.69153,3.84357 153.88621,13.26106c32.7827,7.87685 79.5893,23.01466 121.03045,43.65113c43.63443,21.72866 81.10314,48.79287 81.10314,48.79287c0,0 72.25518,52.53089 72.76563,60.52797c0.48859,7.65459 -69.76563,-13.52797 -69.76563,-13.52797z" fill="url(#color-4)" stroke-width="0"/><path d="M286.19999,19.74988c0,6.07513 -6.08892,11 -13.59999,11c-7.51107,0 -13.59999,-4.92487 -13.59999,-11c0,-6.07513 6.08892,-11 13.59999,-11c7.51107,0 13.59999,4.92487 13.59999,11z" fill="#ffffff" stroke-width="0"/><path d="M330.20004,6.94989c0,10.71433 -13.52101,19.4 -30.20002,19.4c-16.67901,0 -30.20001,-8.68567 -30.20001,-19.4c0,-10.71432 13.52101,-19.4 30.20001,-19.4c16.67901,0 30.20002,8.68568 30.20002,19.40001z" fill="#ffffff" stroke-width="0"/><path d="M345.00006,10.94986c0,6.29605 -7.16345,11.4 -16,11.4c-8.83655,0 -16,-5.10395 -16,-11.4c0,-6.29604 7.16345,-11.4 16,-11.4c8.83655,0 16,5.10395 16,11.4z" fill="#ffffff" stroke-width="0"/><path d="M359.80002,23.94988c0,9.4993 -16.74455,17.2 -37.40001,17.2c-20.65546,0 -37.40001,-7.7007 -37.40001,-17.2c0,-9.49929 16.74455,-17.2 37.40001,-17.2c20.65546,0 37.40001,7.7007 37.40001,17.2z" fill="#ffffff" stroke-width="0"/><path d="M313.8,8.94989c0,9.60975 -15.04324,17.4 -33.60001,17.4c-18.55677,0 -33.60001,-7.79025 -33.60001,-17.4c0,-9.60975 15.04324,-17.4 33.60001,-17.4c18.55677,0 33.60001,7.79025 33.60001,17.40001z" fill="#ffffff" stroke-width="0"/><path d="M387.70003,126.34988c0,11.92936 -14.32689,21.6 -32,21.6c-17.67311,0 -32,-9.67065 -32,-21.6c0,-11.92935 14.32689,-21.60001 32,-21.60001c17.67311,0 32,9.67065 32,21.60001z" fill="#ffffff" stroke-width="0"/><path d="M470.90005,113.14988c0,12.5921 -21.31125,22.8 -47.60001,22.8c-26.28875,0 -47.6,-10.20791 -47.6,-22.8c0,-12.59209 21.31125,-22.8 47.6,-22.8c26.28875,0 47.60001,10.20791 47.60001,22.8z" fill="#ffffff" stroke-width="0"/><path d="M365.3,135.14991c0,15.90582 -22.74393,28.80004 -50.79999,28.80004c-28.05606,0 -50.79999,-12.89422 -50.79999,-28.80004c0,-15.90582 22.74393,-28.80003 50.79999,-28.80003c28.05606,0 50.79999,12.89421 50.79999,28.80003z" fill="#ffffff" stroke-width="0"/><path d="M350.90005,107.94989c0,8.39473 -10.38699,15.20001 -23.20001,15.20001c-12.81302,0 -23.20001,-6.80527 -23.20001,-15.20001c0,-8.39473 10.387,-15.20002 23.20001,-15.20002c12.81302,0 23.20001,6.80528 23.20001,15.20002z" fill="#ffffff" stroke-width="0"/><path d="M116.50008,77.54986c0,7.51108 -11.28243,13.60001 -25.20001,13.60001c-13.91758,0 -25.20001,-6.08893 -25.20001,-13.60001c0,-7.51107 11.28243,-13.60001 25.20001,-13.60001c13.91758,0 25.20001,6.08893 25.20001,13.60001z" fill="#ffffff" stroke-width="0"/><path d="M169.30008,88.74989c0,10.60387 -15.75958,19.2 -35.20001,19.2c-19.44043,0 -35.20001,-8.59614 -35.20001,-19.2c0,-10.60386 15.75959,-19.2 35.20001,-19.2c19.44043,0 35.20001,8.59613 35.20001,19.2z" fill="#ffffff" stroke-width="0"/><path d="M124.50003,104.74989c0,11.48753 -19.16222,20.8 -42.80001,20.8c-23.63779,0 -42.8,-9.31248 -42.8,-20.8c0,-11.48753 19.16221,-20.8 42.8,-20.8c23.63779,0 42.80001,9.31247 42.80001,20.8z" fill="#ffffff" stroke-width="0"/><path d="M110.90004,6.74986c0,14.35941 -9.96912,26 -22.26665,26c-12.29753,0 -22.26666,-11.64059 -22.26666,-26c0,-14.3594 9.96913,-26 22.26666,-26c12.29753,0 22.26666,11.6406 22.26666,26z" fill="#d7e898" stroke-width="0"/><path d="M46.623,-16.00304c1.28625,-2.14372 3.42997,-0.85748 3.42997,-0.85748l1.16512,0.70767c3.59363,1.80263 6.80393,4.07497 10.39999,5.86666c0,0 2.23607,1.11804 1.11803,3.35411c-1.11803,2.23607 -3.3541,1.11803 -3.3541,1.11803c-3.59363,-1.80263 -6.80392,-4.07497 -10.39999,-5.86666l-1.50156,-0.89235c0,0 -2.14372,-1.28625 -0.85747,-3.42998z" fill="#d7e898" stroke-width="0.5"/><path d="M37.78193,7.19293c0.49029,-2.45146 2.94174,-1.96117 2.94174,-1.96117l1.02117,0.22447c5.95324,0.42533 11.31081,0.69997 17.19826,-0.49113c0,0 2.45145,-0.49029 2.94174,1.96116c0.49029,2.45145 -1.96116,2.94174 -1.96116,2.94174c-6.34045,1.25472 -12.13031,1.03292 -18.53508,0.57552l-1.64549,-0.30885c0,0 -2.45146,-0.49028 -1.96117,-2.94174z" fill="#d7e898" stroke-width="0.5"/><path d="M51.33338,45.81655c0,-1.6168 1.04561,-2.18798 1.7844,-2.38977c5.27548,-3.99918 9.77609,-8.22562 15.93462,-11.08013c0,0 2.2699,-1.04765 3.31755,1.22225c1.04765,2.2699 -1.22226,3.31755 -1.22226,3.31755c-6.03311,2.7715 -10.33949,7.0117 -15.54765,10.93009l-1.76667,0.50001c0,0 -2.5,0 -2.5,-2.5z" fill="#d7e898" stroke-width="0.5"/><path d="M94.51105,52.28253c-2.46599,0.41099 -2.87698,-2.05499 -2.87698,-2.05499l-0.29041,-1.78465c-0.34091,-3.85507 0.00364,-7.45154 0.26193,-11.32597c0,0 0.16629,-2.49446 2.66076,-2.32816c2.49447,0.16629 2.32816,2.66076 2.32816,2.66076c-0.2406,3.60903 -0.60723,6.95802 -0.27139,10.5407l0.24291,1.41534c0,0 0.41099,2.46599 -2.055,2.87698z" fill="#d7e898" stroke-width="0.5"/><path d="M131.86782,40.91764c-1.76776,1.76776 -3.53553,0 -3.53553,0l0.10571,-0.0704c-4.09483,-2.0759 -7.85995,-4.56335 -11.70361,-7.06998c0,0 -2.09403,-1.36566 -0.72837,-3.4597c1.36567,-2.09403 3.4597,-0.72836 3.4597,-0.72836c3.68985,2.40651 7.29569,4.81005 11.22974,6.79665l1.17236,0.99625c0,0 1.76776,1.76777 0,3.53553z" fill="#d7e898" stroke-width="0.5"/><path d="M141.35284,2.1329c0.48364,2.45277 -1.96912,2.93642 -1.96912,2.93642c-4.90554,0.96729 -14.0278,2.76605 -18.93335,3.73334c0,0 -2.45278,0.48364 -2.93642,-1.96912c-0.48364,-2.45277 1.96913,-2.93642 1.96913,-2.93642c4.90555,-0.96729 9.81108,-1.93458 14.71662,-2.90187l4.21672,-0.83146c0,0 2.45278,-0.48365 2.93642,1.96913z" fill="#d7e898" stroke-width="0.5"/><path d="M132.813,-26.46488c1.88144,1.64627 0.23516,3.5277 0.23516,3.5277l-1.74096,1.97748c-3.60916,5.81353 -8.02898,10.26146 -13.65078,14.16506c0,0 -2.05548,1.42303 -3.4785,-0.63246c-1.42302,-2.05548 0.63246,-3.4785 0.63246,-3.4785c5.21406,-3.59808 9.1229,-7.69176 12.48252,-13.03493l1.9924,-2.28918c0,0 1.64627,-1.88143 3.5277,-0.23516z" fill="#d7e898" stroke-width="0.5"/><path d="M89.79033,-20.532c-2.45145,0.49029 -2.94173,-1.96117 -2.94173,-1.96117l-0.24057,-1.21729c-1.0433,-4.17514 -1.91849,-7.45151 -1.9413,-11.80633c0,0 0,-2.5 2.5,-2.5c2.5,0 2.5,2.5 2.5,2.5c-0.02421,3.92798 0.84783,6.81855 1.79202,10.59367l0.29276,1.44938c0,0 0.49029,2.45145 -1.96117,2.94174z" fill="#d7e898" stroke-width="0.5"/><path d="M447.10791,180.44382l-21.0007,-43.60655l4.68498,-2.25626l21.0007,43.60655z" fill="#857a5e" stroke-width="0"/><path d="M531.90005,76.14991c0,52.35659 -26.72707,79.79998 -78.20001,79.79998c-51.47294,0 -93.20001,-42.44339 -93.20001,-94.79998c0,-13.97828 52.97429,-56.24996 58.31425,-68.19597c14.66122,-32.79854 2.15519,-35.60401 39.88576,-35.60401c20.47911,0 33.62404,32.14318 48.05043,45.24718c21.83343,19.83208 25.14959,42.02689 25.14959,73.5528z" fill="#48987b" stroke-width="0"/><path d="M495.70003,96.7499c0,33.13709 -17.90861,60 -40,60c-22.09139,0 -40,-26.86291 -40,-60c0,-33.13708 17.90861,-60 40,-60c22.09139,0 40,26.86291 40,60z" fill="#2d7659" stroke-width="0"/></g></g></svg>