<svg version="1.1" xmlns="http://www.w3.org/2000/svg" xmlns:xlink="http://www.w3.org/1999/xlink" width="231.66667" height="232" viewBox="0,0,231.66667,232"><defs><radialGradient cx="239.99999" cy="123" r="115.83333" gradientUnits="userSpaceOnUse" id="color-1"><stop offset="0" stop-color="#008aff"/><stop offset="1" stop-color="#008aff" stop-opacity="0"/></radialGradient><radialGradient cx="239.99999" cy="237" r="115.83333" gradientUnits="userSpaceOnUse" id="color-2"><stop offset="0" stop-color="#008aff"/><stop offset="1" stop-color="#008aff" stop-opacity="0"/></radialGradient></defs><g transform="translate(-124.16666,-64)"><g data-paper-data="{&quot;isPaintingLayer&quot;:true}" fill-rule="nonzero" stroke="none" stroke-width="0" stroke-linecap="butt" stroke-linejoin="miter" stroke-miterlimit="10" stroke-dasharray="" stroke-dashoffset="0" style="mix-blend-mode: normal"><path d="M129.16666,179.33333h-5c0,0 1.03671,-23.92963 11.6654,-48.66721c8.01189,-18.64715 22.33764,-37.46552 40.92835,-48.45612c20.92084,-12.36815 46.31064,-18.21 62.73958,-18.21c14.49352,0 31.92338,1.82594 50.21887,10.89164c21.34323,10.57591 41.06925,27.39761 51.36583,47.64721c14.30241,28.12759 14.74863,59.46115 14.74863,59.46115l-4,-0.33333c0,0 -0.69482,-28.90858 -14.59838,-55.38593c-10.39587,-19.79746 -30.52802,-36.9129 -50.50198,-46.75362c-15.65283,-7.71179 -33.89076,-10.86045 -47.56631,-10.86045c-17.60131,0 -42.09651,6.54946 -61.82429,19.9258c-15.7535,10.68159 -29.78332,27.1314 -37.27376,44.13812c-10.29203,23.36762 -10.90195,46.60275 -10.90195,46.60275z" fill="url(#color-1)"/><path d="M140.06861,227.26941c7.49044,17.00672 21.52025,33.45653 37.27375,44.13812c19.72779,13.37634 44.22298,19.9258 61.8243,19.9258c13.67556,0 31.91348,-3.14865 47.56631,-10.86045c19.97396,-9.84071 40.10611,-26.95616 50.50198,-46.75362c13.90356,-26.47735 14.59838,-55.38593 14.59838,-55.38593l4,-0.33333c0,0 -0.44622,31.33355 -14.74863,59.46115c-10.29658,20.24959 -30.02261,37.07129 -51.36583,47.64721c-18.29549,9.0657 -35.72535,10.89164 -50.21886,10.89164c-16.42894,0 -41.81874,-5.84185 -62.73958,-18.21c-18.59071,-10.9906 -32.91646,-29.80897 -40.92835,-48.45613c-10.62869,-24.73758 -11.6654,-48.66721 -11.6654,-48.66721h5c0,0 0.60992,23.23513 10.90195,46.60275z" data-paper-data="{&quot;index&quot;:null}" fill="url(#color-2)"/></g></g></svg>