<svg viewBox="0,0,228.54985,180.44554" height="180.44554" width="228.54985" xmlns:xlink="http://www.w3.org/1999/xlink" xmlns="http://www.w3.org/2000/svg" version="1.1"><g transform="translate(-116.49331,-86.37479)"><g style="mix-blend-mode: normal" stroke-dashoffset="0" stroke-dasharray="" stroke-miterlimit="10" stroke-linejoin="miter" stroke-linecap="butt" fill-rule="nonzero" data-paper-data="{&quot;isPaintingLayer&quot;:true}"><path stroke-width="3.5" stroke="#ff8600" fill="#ff8600" d="M221.01807,174.20941c0,0 14.25099,2.6177 15.50835,0.65261c1.73957,-2.71871 2.00747,-14.01945 2.00747,-14.01945c0,0 2.46386,12.08005 4.09536,13.4391c0.94796,0.78966 14.66546,-6.47804 14.66546,-6.47804c0,0 -11.53414,9.58272 -11.48395,11.23224c0.04112,1.35138 13.17116,6.94465 13.17116,6.94465c0,0 -14.58677,-2.10763 -15.56452,-0.7558c-1.04006,1.43798 -1.01114,13.93271 -1.01114,13.93271c0,0 -3.05583,-11.51866 -4.89371,-11.64198c-2.33509,-0.15669 -12.9156,6.88826 -12.9156,6.88826c0,0 10.46296,-12.08826 10.12665,-12.66366c-1.02154,-1.74776 -13.70555,-7.53065 -13.70555,-7.53065z"></path><path stroke-width="1" stroke="#ff8600" fill="#fff7d4" d="M174.14896,103.07826c7.33144,9.12909 17.5602,24.43764 17.5602,24.43764c0,0 -12.70739,-13.25144 -20.03884,-22.38052c-7.33144,-9.12909 -12.71988,-16.99017 -12.03543,-17.55823c0.68445,-0.56806 7.18264,6.37204 14.51408,15.50113z"></path><path stroke-width="1" stroke="#ff8600" fill="#fff7d4" data-paper-data="{&quot;index&quot;:null}" d="M261.3246,106.16773c4.08228,-10.97384 8.06332,-19.60766 8.89188,-19.28414c0.82855,0.32352 -1.80911,9.48183 -5.8914,20.45567c-4.0823,10.97384 -11.96818,27.55369 -11.96818,27.55369c0,0 4.88541,-17.75139 8.9677,-28.72524z"></path><path stroke-width="1" stroke="#ff8600" fill="#fff7d4" data-paper-data="{&quot;index&quot;:null}" d="M323.77995,154.35763c11.22903,-3.31652 20.52505,-5.31036 20.76321,-4.45337c0.23816,0.85699 -8.67167,4.2403 -19.90069,7.55682c-11.22903,3.31651 -29.22507,6.95258 -29.22507,6.95258c0,0 17.13353,-6.73952 28.36256,-10.05604z"></path><path stroke-width="1" stroke="#ff8600" fill="#fff7d4" data-paper-data="{&quot;index&quot;:null}" d="M318.05362,245.91677c9.21843,7.2188 16.2378,13.63127 15.67818,14.32264c-0.55961,0.69137 -8.48627,-4.60013 -17.70469,-11.81892c-9.21842,-7.2188 -22.6249,-19.76252 -22.6249,-19.76252c0,0 15.43299,10.04001 24.65142,17.2588z"></path><path stroke-width="1" stroke="#ff8600" fill="#fff7d4" data-paper-data="{&quot;index&quot;:null}" d="M187.02852,249.87193c8.09691,-8.45757 21.94347,-20.5923 21.94347,-20.5923c0,0 -11.48427,14.32446 -19.58117,22.78204c-8.0969,8.45757 -15.18955,14.82358 -15.84189,14.21892c-0.65234,-0.60466 5.38269,-7.95107 13.4796,-16.40865z"></path><path stroke-width="1" stroke="#ff8600" fill="#fff7d4" data-paper-data="{&quot;index&quot;:null}" d="M138.13418,179.27512c11.70656,-0.21656 30.07403,1.05424 30.07403,1.05424c0,0 -18.25603,1.94834 -29.96258,2.16491c-11.70655,0.21656 -21.22153,-0.32851 -21.25231,-1.21745c-0.03079,-0.88894 9.43432,-1.78514 21.14088,-2.0017z"></path></g></g></svg>