<svg viewBox="0,0,298.12198,273.62068" height="273.62068" width="298.12198" xmlns:xlink="http://www.w3.org/1999/xlink" xmlns="http://www.w3.org/2000/svg" version="1.1"><g transform="translate(-93.83763,-60.55858)"><g style="mix-blend-mode: normal" stroke-dashoffset="0" stroke-dasharray="" stroke-miterlimit="10" stroke-linejoin="miter" stroke-linecap="butt" stroke-width="7.5" stroke="#ff8600" fill-rule="nonzero" fill="#fff7d4" data-paper-data="{&quot;isPaintingLayer&quot;:true}"><path d="M217.32426,147.63334c2.94648,-3.43892 14.09676,-67.8 14.09676,-67.8c0,0 11.8759,53.12054 22.53544,62c6.19358,5.15929 99.04,-41.51937 99.04,-41.51937c0,0 -75.35927,62.60952 -75.03132,73.38677c0.26867,8.82934 86.05494,45.37347 86.05494,45.37347c0,0 -95.3039,-13.77036 -101.69209,-4.93808c-6.7953,9.39516 -6.60637,91.03054 -6.60637,91.03054c0,0 -19.96556,-75.25815 -31.97349,-76.06388c-15.2565,-1.02371 -84.38516,45.00507 -84.38516,45.00507c0,0 68.36065,-78.97972 66.16336,-82.73908c-6.67432,-11.41913 -89.54639,-49.20211 -89.54639,-49.20211c0,0 97.69202,9.72937 101.34432,5.46667z"></path></g></g></svg>