<svg viewBox="0,0,326.72035,254.37301" height="254.37301" width="326.72035" xmlns:xlink="http://www.w3.org/1999/xlink" xmlns="http://www.w3.org/2000/svg" version="1.1"><g transform="translate(-65.26027,-48.7846)"><g style="mix-blend-mode: normal" stroke-dashoffset="0" stroke-dasharray="" stroke-miterlimit="10" stroke-linejoin="miter" stroke-linecap="butt" stroke-width="1" stroke="#ff8600" fill-rule="nonzero" fill="#fff7d4" data-paper-data="{&quot;isPaintingLayer&quot;:true}"><path d="M136.4935,58.0655c3.02735,4.03903 6.49539,11.35061 6.49539,11.35061c0,0 -6.00293,-5.32436 -9.03029,-9.36338c-3.02735,-4.03903 -4.91405,-7.75816 -4.21406,-8.30692c0.69999,-0.54876 3.72161,2.28067 6.74896,6.3197z"></path><path data-paper-data="{&quot;index&quot;:null}" d="M280.11856,56.54283c1.8415,-4.33472 4.14665,-7.5734 5.14867,-7.23378c1.00203,0.33962 0.32149,4.1289 -1.52001,8.46362c-1.8415,4.33472 -6.53638,10.50029 -6.53638,10.50029c0,0 1.06622,-7.39542 2.90772,-11.73013z"></path><path data-paper-data="{&quot;index&quot;:null}" d="M381.26351,143.20286c-5.90194,1.34328 -15.60322,1.57118 -15.60322,1.57118c0,0 8.76267,-3.97455 14.66462,-5.31785c5.90194,-1.34328 10.89651,-1.59353 11.1557,-0.55891c0.2592,1.03461 -4.31515,2.96228 -10.2171,4.30558z"></path><path data-paper-data="{&quot;index&quot;:null}" d="M362.33095,286.97508c-4.66356,-3.85856 -10.75988,-11.40853 -10.75988,-11.40853c0,0 8.49346,4.52138 13.15702,8.37995c4.66355,3.85857 7.9075,7.66451 7.24555,8.50084c-0.66194,0.83632 -4.97913,-1.61369 -9.6427,-5.47226z"></path><path data-paper-data="{&quot;index&quot;:null}" d="M149.51207,296.33872c-4.35822,4.20039 -8.47764,6.97007 -9.20097,6.18621c-0.72333,-0.78385 2.22334,-4.82434 6.58155,-9.02472c4.35822,-4.20038 12.4852,-9.35149 12.4852,-9.35149c0,0 -5.50756,7.98961 -9.86577,12.19z"></path><path data-paper-data="{&quot;index&quot;:null}" d="M76.67133,183.32727c-6.05284,-0.02141 -10.93784,-0.90313 -10.91095,-1.96939c0.0269,-1.06625 4.9555,-1.91325 11.00833,-1.89182c6.05284,0.02142 15.47218,1.98553 15.47218,1.98553c0,0 -9.51673,1.8971 -15.56956,1.87569z"></path></g></g></svg>