<svg viewBox="0,0,289.89212,233.42097" height="233.42097" width="289.89212" xmlns:xlink="http://www.w3.org/1999/xlink" xmlns="http://www.w3.org/2000/svg" version="1.1"><g transform="translate(-85.74143,-57.97456)"><g style="mix-blend-mode: normal" stroke-dashoffset="0" stroke-dasharray="" stroke-miterlimit="10" stroke-linejoin="miter" stroke-linecap="butt" stroke-width="1" fill-rule="nonzero" data-paper-data="{&quot;isPaintingLayer&quot;:true}"><path stroke="#ff8600" fill="#fff7d4" data-paper-data="{&quot;index&quot;:null}" d="M267.84395,89.09147c6.80139,-17.54914 12.98576,-31.24682 13.81315,-30.59455c0.82738,0.65227 -4.0155,15.40741 -10.8169,32.95655c-6.80141,17.54914 -18.93849,43.81905 -18.93849,43.81905c0,0 9.14084,-28.63192 15.94225,-46.18108z"></path><path stroke="#ff8600" fill="#fff7d4" data-paper-data="{&quot;index&quot;:null}" d="M342.33766,149.38571c18.1427,-5.00738 32.82592,-8.21292 32.79584,-7.15977c-0.03009,1.05314 -14.76203,5.96616 -32.90474,10.97352c-18.14271,5.00736 -46.46763,10.93316 -46.46763,10.93316c0,0 28.43384,-9.73955 46.57655,-14.74693z"></path><path stroke="#ff8600" fill="#fff7d4" data-paper-data="{&quot;index&quot;:null}" d="M333.19278,257.39715c14.85603,11.55551 26.20012,21.41373 25.33768,22.01889c-0.86243,0.60516 -13.60475,-8.27184 -28.46078,-19.82736c-14.85602,-11.55553 -36.53272,-30.72678 -36.53272,-30.72678c0,0 24.7998,16.97974 39.65584,28.53527z"></path><path stroke="#ff8600" fill="#fff7d4" data-paper-data="{&quot;index&quot;:null}" d="M174.62671,264.63671c12.51584,-14.05653 33.82775,-35.24955 33.82775,-35.24955c0,0 -17.84336,22.78225 -30.35918,36.83877c-12.51582,14.05651 -23.43837,25.0958 -24.3962,24.65696c-0.95783,-0.43885 8.41182,-12.1897 20.92765,-26.24621z"></path><path stroke="#ff8600" fill="#fff7d4" data-paper-data="{&quot;index&quot;:null}" d="M119.79,178.51908c18.81726,0.37832 48.7748,2.80463 48.7748,2.80463c0,0 -28.91145,1.24278 -47.72869,0.86448c-18.81723,-0.37832 -34.30579,-1.50636 -34.59468,-2.51955c-0.28889,-1.0132 14.73137,-1.52787 33.5486,-1.14955z"></path><path stroke="#ff8600" fill="#fff7d4" data-paper-data="{&quot;index&quot;:null}" d="M161.76303,89.73516c12.07938,14.43333 29.93508,38.61008 29.93508,38.61008c0,0 -19.93414,-20.97728 -32.01353,-35.41058c-12.07936,-14.43331 -21.40635,-26.85004 -20.83241,-27.73356c0.57394,-0.88353 10.83151,10.10079 22.91087,24.5341z"></path></g></g></svg>